<svg xmlns="http://www.w3.org/2000/svg" width="46" height="43" viewBox="0 0 46 43">
  <defs>
    <style>
      .cls-1 {
        fill: #fff;
        fill-rule: evenodd;
      }
    </style>
  </defs>
  <path class="cls-1" d="M8.192,26.467C7.045,30.7,9.637,35.133,12.868,37.737a15.748,15.748,0,0,0,12.279,3.089A27.413,27.413,0,0,0,38.342,35.1a18.492,18.492,0,0,0,6.32-11.206A20.552,20.552,0,0,0,42.7,10.625a18.863,18.863,0,0,0-9.274-8.351C25.1-1.158,16.416,2.8,10.394,8.726A28.775,28.775,0,0,0,2.776,20.772c-0.677,2.261-1.3,5.072-.117,7.274,1.156,2.144,3.771,3.747,5.8,4.967a1,1,0,0,0,1.012-1.724,16.166,16.166,0,0,1-4.8-3.8c-1.2-1.655-.568-4.062-0.06-5.861a25.221,25.221,0,0,1,5.6-9.819c4.862-5.445,12.06-10.13,19.691-8.537C37.7,4.9,42.887,12.069,42.992,19.82a18.444,18.444,0,0,1-3.427,11.151c-2.378,3.227-6.268,5.394-9.994,6.71-4.383,1.548-9.424,2.105-13.627-.255C12.493,35.489,8.989,31.187,10.125,27a1,1,0,0,0-1.933-.531h0ZM18.332,15.18a26.037,26.037,0,0,0,6.661,4.336,26.565,26.565,0,0,0,3.7,1.348,10.329,10.329,0,0,1,3.552,1.206q-0.1-.784-0.2-1.568c-1.685,1.873-4.122,3.018-6.349,4.12a60.31,60.31,0,0,1-7.359,3.046c-1.214.413-.693,2.342,0.533,1.925a64.346,64.346,0,0,0,7.837-3.247c2.383-1.179,4.953-2.429,6.755-4.432a1.016,1.016,0,0,0-.2-1.568,9,9,0,0,0-3.341-1.227,23.642,23.642,0,0,1-3.7-1.232,24.216,24.216,0,0,1-6.473-4.119c-0.96-.853-2.383.555-1.418,1.412h0Z"/>
</svg>
