<svg xmlns="http://www.w3.org/2000/svg" width="56" height="53" viewBox="0 0 56 53">
  <defs>
    <style>
      .cls-1 {
        fill: #ca081c;
        fill-rule: evenodd;
      }
    </style>
  </defs>
  <path class="cls-1" d="M8.9,33.672C7.47,39.021,10.749,44.6,14.754,47.879a19.4,19.4,0,0,0,15.265,3.9,34.254,34.254,0,0,0,16.633-7.311A23.693,23.693,0,0,0,54.6,30.134,26.543,26.543,0,0,0,52.14,13.262,23.784,23.784,0,0,0,40.559,2.633C30.085-1.773,19.174,3.312,11.6,10.883A36.919,36.919,0,0,0,2,26.3c-0.831,2.82-1.641,6.361-.188,9.115A11.494,11.494,0,0,0,4.855,38.7a36.028,36.028,0,0,0,4.209,3,0.9,0.9,0,0,0,.9-1.562C7.8,38.821,5.259,37.229,3.749,35.126,2.13,32.873,2.919,29.665,3.6,27.2a33.214,33.214,0,0,1,7.235-12.878c6.291-7.16,15.59-13.239,25.449-11.148,10.087,2.139,16.8,11.6,16.941,21.791a24.515,24.515,0,0,1-4.417,14.627c-3.087,4.266-8.111,7.123-12.955,8.862-5.681,2.039-12.208,2.736-17.649-.369-4.548-2.6-9.078-8.34-7.586-13.934A0.9,0.9,0,0,0,8.9,33.672h0Z"/>
</svg>
